nColumns=19
nRows=105
DataType=double
version=3
OpenSimVersion=4.1
endheader
time	ground_force_1_vx	ground_force_1_vy	ground_force_1_vz	ground_force_1_px	ground_force_1_py	ground_force_1_pz	ground_force_1_mx	ground_force_1_my	ground_force_1_mz	ground_force_2_vx	ground_force_2_vy	ground_force_2_vz	ground_force_2_px	ground_force_2_py	ground_force_2_pz	ground_force_2_mx	ground_force_2_my	ground_force_2_mz
0.02	3.27463	30.9709	9.34676	0.040116	0.006	-0.206975	0	0.948502	0	0	0	0	0.7521	0	-0.190491	0	0	0
0.03	2.8202	49.8905	12.1342	0.051642	0.006	-0.20637	0	0.957108	0	0	0	0	0.7521	0	-0.190491	0	0	0
0.04	1.92216	73.1896	15.2486	0.059447	0.006	-0.20579	0	0.980667	0	0	0	0	0.7521	0	-0.190491	0	0	0
0.05	0.45796	100.967	18.5919	0.06551	0.006	-0.205222	0	1.00592	0	0	0	0	0.7521	0	-0.190491	0	0	0
0.06	-1.70412	133.041	22.0107	0.070654	0.006	-0.20465	0	1.02226	0	0	0	0	0.7521	0	-0.190491	0	0	0
0.07	-4.67271	168.977	25.3029	0.075308	0.006	-0.204054	0	1.01881	0	0	0	0	0.7521	0	-0.190491	0	0	0
0.08	-8.47801	208.182	28.2168	0.079722	0.006	-0.203405	0	0.983791	0	0	0	0	0.7521	0	-0.190491	0	0	0
0.09	-13.0659	249.986	30.4604	0.084045	0.006	-0.202673	0	0.905186	0	0	0	0	0.7521	0	-0.190491	0	0	0
0.1	-18.3205	293.675	31.7371	0.088371	0.006	-0.201838	0	0.772404	0	0	0	0	0.7521	0	-0.190491	0	0	0
0.11	-24.1056	338.519	31.7897	0.092758	0.006	-0.200891	0	0.578659	0	0	0	0	0.7521	0	-0.190491	0	0	0
0.12	-30.292	383.796	30.4397	0.097237	0.006	-0.199838	0	0.323854	0	0	0	0	0.7521	0	-0.190491	0	0	0
0.13	-36.7534	428.826	27.6226	0.101823	0.006	-0.1987	0	0.017529	0	0	0	0	0.7521	0	-0.190491	0	0	0
0.14	-43.3576	472.982	23.4186	0.106511	0.006	-0.197511	0	-0.319754	0	0	0	0	0.7521	0	-0.190491	0	0	0
0.15	-49.9639	515.662	18.0658	0.11128	0.006	-0.196317	0	-0.6582	0	0	0	0	0.7521	0	-0.190491	0	0	0
0.16	-56.4161	556.273	11.9371	0.116099	0.006	-0.195167	0	-0.963907	0	0	0	0	0.7521	0	-0.190491	0	0	0
0.17	-62.5349	594.228	5.48426	0.120931	0.006	-0.194111	0	-1.20585	0	0	0	0	0.7521	0	-0.190491	0	0	0
0.18	-68.1264	628.963	-0.836388	0.125739	0.006	-0.193188	0	-1.36235	0	0	0	0	0.7521	0	-0.190491	0	0	0
0.19	-73.0056	659.949	-6.63112	0.130494	0.006	-0.192426	0	-1.42427	0	0	0	0	0.7521	0	-0.190491	0	0	0
0.2	-77.0184	686.715	-11.6099	0.135174	0.006	-0.191836	0	-1.39424	0	0	0	0	0.7521	0	-0.190491	0	0	0
0.21	-80.062	708.889	-15.6058	0.139777	0.006	-0.19142	0	-1.28386	0	0	0	0	0.7521	0	-0.190491	0	0	0
0.22	-82.0965	726.229	-18.5676	0.14431	0.006	-0.191166	0	-1.10984	0	0	0	0	0.7521	0	-0.190491	0	0	0
0.23	-83.1361	738.649	-20.5365	0.148794	0.006	-0.191059	0	-0.890149	0	0	0	0	0.7521	0	-0.190491	0	0	0
0.24	-83.2353	746.217	-21.6162	0.153253	0.006	-0.19108	0	-0.6418	0	0	0	0	0.7521	0	-0.190491	0	0	0
0.25	-82.4714	749.15	-21.9485	0.157711	0.006	-0.19121	0	-0.380021	0	0	0	0	0.7521	0	-0.190491	0	0	0
0.26	-80.9317	747.8	-21.6926	0.162193	0.006	-0.19143	0	-0.118158	0	0	0	0	0.7521	0	-0.190491	0	0	0
0.27	-78.7094	742.641	-21.0062	0.166716	0.006	-0.191721	0	0.131832	0	0	0	0	0.7521	0	-0.190491	0	0	0
0.28	-75.9021	734.248	-20.0333	0.171298	0.006	-0.192065	0	0.358825	0	0	0	0	0.7521	0	-0.190491	0	0	0
0.29	-72.6103	723.287	-18.894	0.175948	0.006	-0.192448	0	0.552564	0	0	0	0	0.7521	0	-0.190491	0	0	0
0.3	-68.9363	710.486	-17.6694	0.180674	0.006	-0.192856	0	0.704003	0	0	0	0	0.7521	0	-0.190491	0	0	0
0.31	-64.9823	696.605	-16.3987	0.185477	0.006	-0.193282	0	0.804995	0	0	0	0	0.7521	0	-0.190491	0	0	0
0.32	-60.8409	682.39	-15.0938	0.190348	0.006	-0.19372	0	0.84826	0	0	0	0	0.7521	0	-0.190491	0	0	0
0.33	-56.5888	668.535	-13.7519	0.195272	0.006	-0.19417	0	0.828434	0	0	0	0	0.7521	0	-0.190491	0	0	0
0.34	-52.2884	655.639	-12.3698	0.200224	0.006	-0.194631	0	0.743132	0	0	0	0	0.7521	0	-0.190491	0	0	0
0.35	-47.9916	644.184	-10.9555	0.205174	0.006	-0.1951	0	0.593856	0	0	0	0	0.7521	0	-0.190491	0	0	0
0.36	-43.7409	634.519	-9.53161	0.210092	0.006	-0.195575	0	0.386057	0	0	0	0	0.7521	0	-0.190491	0	0	0
0.37	-39.5693	626.874	-8.13398	0.214949	0.006	-0.196051	0	0.128367	0	0	0	0	0.7521	0	-0.190491	0	0	0
0.38	-35.4965	621.378	-6.8065	0.219724	0.006	-0.19652	0	-0.168573	0	0	0	0	0.7521	0	-0.190491	0	0	0
0.39	-31.527	618.09	-5.59338	0.224403	0.006	-0.196974	0	-0.493574	0	0	0	0	0.7521	0	-0.190491	0	0	0
0.4	-27.6518	617.023	-4.53145	0.228984	0.006	-0.197407	0	-0.836133	0	0	0	0	0.7521	0	-0.190491	0	0	0
0.41	-23.8503	618.167	-3.64641	0.233473	0.006	-0.197811	0	-1.18715	0	0	0	0	0.7521	0	-0.190491	0	0	0
0.42	-20.0911	621.502	-2.95319	0.237881	0.006	-0.198183	0	-1.53893	0	0	0	0	0.7521	0	-0.190491	0	0	0
0.43	-16.3321	627.001	-2.45805	0.242225	0.006	-0.198516	0	-1.88474	0	0	0	0	0.7521	0	-0.190491	0	0	0
0.44	-12.5214	634.63	-2.15956	0.246521	0.006	-0.198809	0	-2.21826	0	0	0	0	0.7521	0	-0.190491	0	0	0
0.45	-8.59969	644.347	-2.04839	0.250778	0.006	-0.199056	0	-2.53299	0	0	0	0	0.7521	0	-0.190491	0	0	0
0.46	-4.50256	656.097	-2.10738	0.255	0.006	-0.199254	0	-2.82199	0	0	0	0	0.7521	0	-0.190491	0	0	0
0.47	-0.165118	669.787	-2.31162	0.259181	0.006	-0.199402	0	-3.07819	0	0	0	0	0.7521	0	-0.190491	0	0	0
0.48	4.47412	685.263	-2.62839	0.263311	0.006	-0.199497	0	-3.29499	0	0	0	0	0.7521	0	-0.190491	0	0	0
0.49	9.47052	702.275	-3.01696	0.267371	0.006	-0.199542	0	-3.46715	0	0	0	0	0.7521	0	-0.190491	0	0	0
0.5	14.8725	720.447	-3.42953	0.271343	0.006	-0.199539	0	-3.59136	0	0	0	0	0.7521	0	-0.190491	0	0	0
0.51	20.7202	739.258	-3.81565	0.275208	0.006	-0.199491	0	-3.66633	0	0	0	0	0.7521	0	-0.190491	0	0	0
0.52	27.0401	758.037	-4.12964	0.27895	0.006	-0.199403	0	-3.69247	0	0	0	0	0.7521	0	-0.190491	0	0	0
0.53	33.836	775.978	-4.33571	0.28256	0.006	-0.199279	0	-3.67144	0	0	0	0	0.7521	0	-0.190491	0	0	0
0.54	41.0802	792.18	-4.40701	0.286032	0.006	-0.199122	0	-3.60599	0	0	0	0	0.7521	0	-0.190491	0	0	0
0.55	48.7047	805.691	-4.32459	0.289369	0.006	-0.19894	0	-3.49995	0	0	0	0	0.7521	0	-0.190491	0	0	0
0.56	56.6001	815.555	-4.07765	0.292578	0.006	-0.198739	0	-3.35819	0	0	0	0	0.7521	0	-0.190491	0	0	0
0.57	64.6134	820.838	-3.6617	0.295671	0.006	-0.198524	0	-3.18651	0	0	0	0	0.7521	0	-0.190491	0	0	0
0.58	72.5495	820.668	-3.07411	0.29866	0.006	-0.198304	0	-2.99192	0	4.16306	22.5757	-9.19078	0.7521	0.006	-0.190491	0	0.004255	0
0.59	80.174	814.266	-2.31314	0.301563	0.006	-0.198085	0	-2.7825	0	3.35367	43.9219	-11.3275	0.796852	0.006	-0.214478	0	0.175261	0
0.6	87.2161	800.981	-1.37933	0.304397	0.006	-0.197872	0	-2.56691	0	1.83368	70.8963	-13.6383	0.818189	0.006	-0.225294	0	0.242616	0
0.61	93.3727	780.331	-0.276994	0.30718	0.006	-0.197672	0	-2.35358	0	-0.58584	103.866	-16.0224	0.830567	0.006	-0.23112	0	0.281367	0
0.62	98.3201	752.051	0.98117	0.309932	0.006	-0.197488	0	-2.14952	0	-4.10674	142.903	-18.3308	0.83898	0.006	-0.234742	0	0.313621	0
0.63	101.736	716.153	2.36575	0.312673	0.006	-0.197323	0	-1.95907	0	-8.93072	187.666	-20.3607	0.845365	0.006	-0.237226	0	0.349335	0
0.64	103.33	672.974	3.82298	0.315424	0.006	-0.197176	0	-1.7834	0	-15.1859	237.413	-21.8843	0.850638	0.006	-0.23907	0	0.394652	0
0.65	102.881	623.221	5.27288	0.318209	0.006	-0.197044	0	-1.62097	0	-22.8215	291.189	-22.6863	0.855277	0.006	-0.24054	0	0.454037	0
0.66	100.272	567.968	6.61464	0.321055	0.006	-0.196922	0	-1.46843	0	-31.6129	347.934	-22.5873	0.85954	0.006	-0.241786	0	0.5302	0
0.67	95.5162	508.629	7.73787	0.32399	0.006	-0.196799	0	-1.32132	0	-41.2388	406.434	-21.4597	0.863565	0.006	-0.242894	0	0.623461	0
0.68	88.7854	446.876	8.54327	0.327053	0.006	-0.196664	0	-1.17573	0	-51.3398	465.269	-19.2493	0.867425	0.006	-0.24391	0	0.730435	0
0.69	80.4023	384.522	8.96447	0.330294	0.006	-0.196503	0	-1.02991	0	-61.5339	522.868	-15.9993	0.871158	0.006	-0.244861	0	0.842434	0
0.7	70.8185	323.389	8.98228	0.333789	0.006	-0.196302	0	-0.884661	0	-71.4138	577.626	-11.8673	0.874774	0.006	-0.245754	0	0.945941	0
0.71	60.5716	265.165	8.62935	0.337652	0.006	-0.196045	0	-0.743152	0	-80.5606	628.004	-7.11345	0.87827	0.006	-0.246588	0	1.02597	0
0.72	50.2172	211.263	7.97863	0.342071	0.006	-0.195707	0	-0.609463	0	-88.5816	672.634	-2.0547	0.881637	0.006	-0.247357	0	1.0713	0
0.73	40.2559	162.744	7.12444	0.347374	0.006	-0.195241	0	-0.487413	0	-95.1528	710.422	2.98988	0.884868	0.006	-0.248057	0	1.07838	0
0.74	31.0805	120.28	6.16382	0.354169	0.006	-0.194561	0	-0.380381	0	-100.044	740.637	7.72914	0.887966	0.006	-0.248684	0	1.05073	0
0.75	22.9552	84.1659	5.1821	0.363711	0.006	-0.193486	0	-0.291921	0	-103.13	762.933	11.9095	0.890939	0.006	-0.249237	0	0.995703	0
0.76	16.011	54.3655	4.24202	0.379001	0.006	-0.191579	0	-0.22782	0	-104.39	777.317	15.327	0.893802	0.006	-0.249714	0	0.922458	0
0.77	10.2648	30.5598	3.38182	0.409407	0.006	-0.187465	0	-0.203899	0	-103.903	784.103	17.8499	0.89658	0.006	-0.250118	0	0.841432	0
0.78	0	0	0	0.452805	0	-0.183415	0	0	0	-101.841	783.878	19.4403	0.899304	0.006	-0.250453	0	0.764205	0
0.79	0	0	0	0.48243	0	-0.182994	0	0	0	-98.4504	777.472	20.1552	0.902016	0.006	-0.25073	0	0.702372	0
0.8	0	0	0	0.512055	0	-0.182573	0	0	0	-94.0267	765.918	20.1172	0.904763	0.006	-0.250963	0	0.665269	0
0.81	0	0	0	0.541679	0	-0.182153	0	0	0	-88.8837	750.394	19.4853	0.907597	0.006	-0.251166	0	0.659129	0
0.82	0	0	0	0.571304	0	-0.181732	0	0	0	-83.3257	732.17	18.43	0.910567	0.006	-0.251354	0	0.687563	0
0.83	0	0	0	0.600929	0	-0.181311	0	0	0	-77.6225	712.507	17.1084	0.913716	0.006	-0.251538	0	0.752263	0
0.84	0	0	0	0.630553	0	-0.18089	0	0	0	-71.9914	692.572	15.6471	0.917076	0.006	-0.251727	0	0.853683	0
0.85	0	0	0	0.660178	0	-0.18047	0	0	0	-66.5895	673.362	14.1394	0.920661	0.006	-0.251926	0	0.991704	0
0.86	0	0	0	0.689803	0	-0.180049	0	0	0	-61.5117	655.678	12.6509	0.924473	0.006	-0.252135	0	1.16596	0
0.87	0	0	0	0.719427	0	-0.179628	0	0	0	-56.7987	640.113	11.2308	0.928497	0.006	-0.252355	0	1.37602	0
0.88	0	0	0	0.749052	0	-0.179207	0	0	0	-52.452	627.07	9.92349	0.932709	0.006	-0.252588	0	1.62117	0
0.89	0	0	0	0.778677	0	-0.178787	0	0	0	-48.4495	616.787	8.77324	0.937082	0.006	-0.252835	0	1.89987	0
0.9	0	0	0	0.808301	0	-0.178366	0	0	0	-44.7557	609.378	7.82336	0.941591	0.006	-0.253101	0	2.20915	0
0.91	0	0	0	0.837926	0	-0.177945	0	0	0	-41.3254	604.875	7.11241	0.946213	0.006	-0.253392	0	2.54434	0
0.92	0	0	0	0.867551	0	-0.177524	0	0	0	-38.107	603.267	6.67434	0.950934	0.006	-0.253715	0	2.89931	0
0.93	0	0	0	0.897175	0	-0.177104	0	0	0	-35.0466	604.522	6.53988	0.955746	0.006	-0.254076	0	3.26668	0
0.94	0	0	0	0.9268	0	-0.176683	0	0	0	-32.0917	608.601	6.73493	0.960644	0.006	-0.25448	0	3.63815	0
0.95	0	0	0	0.956425	0	-0.176262	0	0	0	-29.1937	615.452	7.27889	0.96563	0.006	-0.254929	0	4.00486	0
0.96	0	0	0	0.986049	0	-0.175841	0	0	0	-26.3067	624.994	8.18292	0.970705	0.006	-0.255422	0	4.35788	0
0.97	0	0	0	1.01567	0	-0.175421	0	0	0	-23.3845	637.089	9.44774	0.975869	0.006	-0.255955	0	4.68836	0
0.98	0	0	0	1.0453	0	-0.175	0	0	0	-20.3785	651.523	11.061	0.981115	0.006	-0.256522	0	4.98731	0
0.99	0	0	0	1.07492	0	-0.174579	0	0	0	-17.2373	667.982	12.9941	0.986435	0.006	-0.257112	0	5.24553	0
1	0	0	0	1.10455	0	-0.174158	0	0	0	-13.904	686.045	15.1992	0.991815	0.006	-0.257716	0	5.45386	0
1.01	0	0	0	1.13417	0	-0.173738	0	0	0	-10.3148	705.195	17.6058	0.997233	0.006	-0.258321	0	5.60374	0
1.02	0	0	0	1.1638	0	-0.173317	0	0	0	-6.39946	724.832	20.1186	1.00266	0.006	-0.25891	0	5.68822	0
1.03	0	0	0	1.19342	0	-0.172896	0	0	0	-2.08725	744.306	22.6176	1.00807	0.006	-0.259469	0	5.70329	0
1.04	0	0	0	1.22305	0	-0.172475	0	0	0	2.68291	762.95	24.9627	1.01342	0.006	-0.25998	0	5.64911	0
1.05	0	0	0	1.25267	0	-0.172055	0	0	0	7.9506	780.083	27.0054	1.01866	0.006	-0.260429	0	5.53069	0
1.06	0	0	0	1.2823	0	-0.171634	0	0	0	13.7249	795.01	28.6032	1.02376	0.006	-0.260802	0	5.35752	0
